# xmcd
#
# Track frame offsets: 
#        150
#        20781
#        35092
#        49112
#        68104
#        84788
#        101370
#        117852
#
# Disc length: 1804 seconds
#
# Revision: 0
# Processed by: cddbd v1.5.2PL0 Copyright (c) Steve Scherf et al.
# Submitted via: ExactAudioCopy v0.99pb4
#
DISCID=60070a08
DTITLE=Fats Gallon - Funky And Tough
DYEAR=1977
DGENRE=Funk
TTITLE0=How Can I Explain
TTITLE1=Life Is A Beautiful Thing
TTITLE2=Feelings
TTITLE3=Satan's Dream
TTITLE4=Magician Man
TTITLE5=Doing Bad
TTITLE6=Free My Mind
TTITLE7=Tip Of My Tongue
EXTD=
EXTT0=
EXTT1=
EXTT2=
EXTT3=
EXTT4=
EXTT5=
EXTT6=
EXTT7=
PLAYORDER=
